<?xml version="1.0" encoding="utf-8"?>
<svg xmlns="http://www.w3.org/2000/svg"
	xmlns:xlink="http://www.w3.org/1999/xlink"
	width="204px" height="30px" viewBox="0 0 204 30">
<path fillRule="evenodd" d="M 200.74 8.75C 201.29 8.53 201.76 8.23 202.15 7.84 202.54 7.45 202.85 7 203.07 6.47 203.3 5.94 203.41 5.36 203.41 4.74 203.41 4.12 203.3 3.55 203.07 3.02 202.85 2.5 202.54 2.04 202.15 1.66 201.76 1.27 201.29 0.97 200.74 0.75 200.2 0.53 199.61 0.42 198.98 0.42 198.35 0.42 197.76 0.53 197.22 0.75 196.68 0.97 196.22 1.27 195.82 1.66 195.43 2.04 195.13 2.5 194.91 3.02 194.69 3.55 194.58 4.12 194.58 4.74 194.58 5.36 194.69 5.94 194.91 6.47 195.13 7 195.43 7.45 195.82 7.84 196.22 8.23 196.68 8.53 197.22 8.75 197.76 8.97 198.35 9.08 198.98 9.08 199.61 9.08 200.2 8.97 200.74 8.75ZM 197.39 8.39C 196.91 8.19 196.49 7.91 196.13 7.56 195.77 7.21 195.5 6.79 195.3 6.31 195.1 5.83 195 5.31 195 4.75 195 4.19 195.1 3.67 195.3 3.19 195.5 2.7 195.77 2.29 196.13 1.94 196.49 1.59 196.91 1.32 197.4 1.12 197.88 0.92 198.41 0.82 198.98 0.82 199.56 0.82 200.09 0.92 200.58 1.12 201.06 1.32 201.49 1.59 201.85 1.94 202.21 2.3 202.49 2.71 202.69 3.19 202.89 3.67 202.99 4.2 202.99 4.76 202.99 5.35 202.88 5.88 202.68 6.36 202.47 6.84 202.18 7.25 201.82 7.6 201.46 7.94 201.04 8.21 200.55 8.4 200.06 8.59 199.54 8.69 198.98 8.69 198.4 8.69 197.87 8.59 197.39 8.39ZM 199.92 7.39C 200.17 7.3 200.4 7.19 200.6 7.05 200.8 6.91 200.97 6.76 201.1 6.59 201.24 6.43 201.34 6.28 201.39 6.13 201.39 6.13 200.6 5.9 200.6 5.9 200.46 6.18 200.24 6.41 199.94 6.57 199.64 6.73 199.33 6.82 199.03 6.82 198.81 6.82 198.59 6.77 198.36 6.68 198.13 6.59 197.93 6.45 197.74 6.28 197.56 6.1 197.41 5.88 197.29 5.62 197.17 5.36 197.11 5.07 197.11 4.74 197.11 4.49 197.15 4.24 197.23 3.99 197.31 3.74 197.43 3.51 197.58 3.32 197.74 3.12 197.93 2.96 198.17 2.84 198.41 2.71 198.68 2.65 199 2.65 199.12 2.65 199.25 2.66 199.39 2.69 199.53 2.71 199.67 2.76 199.81 2.82 199.95 2.88 200.09 2.97 200.21 3.08 200.33 3.2 200.44 3.34 200.52 3.52 200.52 3.52 201.31 3.26 201.31 3.26 201.12 2.83 200.83 2.5 200.41 2.27 200 2.05 199.53 1.93 199 1.93 198.54 1.93 198.14 2.02 197.79 2.18 197.45 2.35 197.16 2.57 196.94 2.83 196.72 3.1 196.55 3.4 196.44 3.73 196.32 4.07 196.27 4.4 196.27 4.74 196.27 5.16 196.35 5.55 196.5 5.89 196.66 6.24 196.87 6.53 197.13 6.77 197.39 7.01 197.68 7.19 198.02 7.33 198.36 7.46 198.71 7.52 199.08 7.52 199.38 7.52 199.66 7.48 199.92 7.39Z" fill="rgb(62,61,64)"/><path fillRule="evenodd" d="M 178.97 20.24C 178.97 20.24 178.97 29.83 178.97 29.83 178.97 29.83 171.02 29.83 171.02 29.83 171.02 29.83 171.02 20.16 171.02 20.16 171.02 20.16 160.46-0.01 160.46-0.01 160.46-0.01 169.31-0.01 169.31-0.01 169.31-0.01 175.18 12.23 175.18 12.23 175.18 12.23 181.17-0.01 181.17-0.01 181.17-0.01 190.01-0.01 190.01-0.01 190.01-0.01 178.97 20.24 178.97 20.24ZM 164.39 29.83C 164.39 29.83 141.85 29.83 141.85 29.83 141.85 29.83 141.85-0.01 141.85-0.01 141.85-0.01 149.8-0.01 149.8-0.01 149.8-0.01 149.8 23.34 149.8 23.34 149.8 23.34 164.39 23.34 164.39 23.34 164.39 23.34 164.39 29.83 164.39 29.83ZM 115.33-0.01C 115.33-0.01 137.87-0.01 137.87-0.01 137.87-0.01 137.87 7.77 137.87 7.77 137.87 7.77 123.29 7.77 123.29 7.77 123.29 7.77 123.29 11.66 123.29 11.66 123.29 11.66 135.22 11.66 135.22 11.66 135.22 11.66 135.22 18.15 135.22 18.15 135.22 18.15 123.29 18.15 123.29 18.15 123.29 18.15 123.29 23.34 123.29 23.34 123.29 23.34 137.87 23.34 137.87 23.34 137.87 23.34 137.87 29.83 137.87 29.83 137.87 29.83 115.33 29.83 115.33 29.83 115.33 29.83 115.33-0.01 115.33-0.01ZM 95.03 29.83C 95.03 29.83 83.34-0.01 83.34-0.01 83.34-0.01 91.89-0.01 91.89-0.01 91.89-0.01 98.31 18.84 98.31 18.84 98.31 18.84 104.62-0.01 104.62-0.01 104.62-0.01 113.17-0.01 113.17-0.01 113.17-0.01 101.57 29.83 101.57 29.83 101.57 29.83 95.03 29.83 95.03 29.83ZM 77.54 29.83C 77.54 29.83 75.28 24.64 75.28 24.64 75.28 24.64 67.15 24.64 67.15 24.64 67.15 24.64 64.93 29.83 64.93 29.83 64.93 29.83 56.48 29.83 56.48 29.83 56.48 29.83 56.46 29.83 56.46 29.83 56.46 29.83 68.07-0.01 68.07-0.01 68.07-0.01 74.44-0.01 74.44-0.01 74.44-0.01 86.13 29.83 86.13 29.83 86.13 29.83 77.54 29.83 77.54 29.83ZM 71.22 10.33C 71.22 10.33 68.65 18.15 68.65 18.15 68.65 18.15 73.7 18.15 73.7 18.15 73.7 18.15 71.22 10.33 71.22 10.33ZM 56.27 29.83C 56.27 29.83 56.34 29.83 56.34 29.83 56.34 29.83 56.46 29.83 56.46 29.83 56.46 29.83 56.39 30.01 56.39 30.01 56.39 30.01 56.27 29.83 56.27 29.83ZM 41.44 20.75C 41.44 20.75 38.44 20.75 38.44 20.75 38.44 20.75 38.44 29.83 38.44 29.83 38.44 29.83 30.48 29.83 30.48 29.83 30.48 29.83 30.48-0.01 30.48-0.01 30.48-0.01 43.82-0.01 43.82-0.01 45.29-0.01 46.67 0.6 47.92 1.21 49.15 1.8 50.23 2.9 51.13 3.87 52.03 4.83 52.74 5.94 53.25 7.16 53.76 8.38 54.02 9.64 54.02 10.9 54.02 11.83 53.9 12.74 53.67 13.6 53.44 14.47 53.1 15.28 52.66 16.05 52.22 16.82 51.68 17.49 51.05 18.1 50.58 18.56 50.07 18.89 49.51 19.25 49.51 19.25 56.27 29.83 56.27 29.83 56.27 29.83 47.32 29.83 47.32 29.83 47.32 29.83 41.44 20.75 41.44 20.75ZM 45.02 8.57C 44.49 8.01 43.95 7.77 43.37 7.77 43.37 7.77 38.44 7.77 38.44 7.77 38.44 7.77 38.44 14.26 38.44 14.26 38.44 14.26 43.58 14.26 43.58 14.26 44.16 14.26 44.66 13.96 45.1 13.39 45.59 12.77 45.83 11.93 45.83 10.93 45.83 9.91 45.57 9.15 45.02 8.57ZM 17.23 29.83C 17.23 29.83 9.27 29.83 9.27 29.83 9.27 29.83 9.27 7.77 9.27 7.77 9.27 7.77-0.01 7.77-0.01 7.77-0.01 7.77-0.01-0.01-0.01-0.01-0.01-0.01 26.51-0.01 26.51-0.01 26.51-0.01 26.51 7.77 26.51 7.77 26.51 7.77 17.23 7.77 17.23 7.77 17.23 7.77 17.23 29.83 17.23 29.83Z" fill="rgb(253,91,7)"/></svg>