<svg xmlns="http://www.w3.org/2000/svg" width="14" height="17" viewBox="0 0 14 17">
  <path id="pinterest.svg" class="cls-1" d="M469.376,5079.3c1.481,1.1,4.191.43,5.362-.55,1.686-1.42,2.465-4.3,2.216-6.58a6.216,6.216,0,0,0-5.545-5.11c-4.389-.49-8.379,2.17-8.409,6.39-0.014,1.99.635,3.24,2.4,3.93,1.207-1.19-.226-1.96-0.37-3.29a5.156,5.156,0,0,1,7.671-4.75c2.638,1.54,2.19,8.13-1.017,8.77a2.317,2.317,0,0,1-1.755-.37c-1.524-1.41,1.261-3.89.369-5.93-0.774-1.78-2.994-.36-3.235,1.18a13.321,13.321,0,0,0,.277,2.38c0.007,1.74-1.1,4.11-1.387,5.84a9.51,9.51,0,0,0-.045,2.77,0.048,0.048,0,0,0-.027.02h1.159a19.8,19.8,0,0,0,1.779-5.16C469.078,5078.65,469.172,5079.14,469.376,5079.3Z" transform="translate(-463 -5067)"/>
</svg>
