<svg xmlns="http://www.w3.org/2000/svg" width="10" height="13" viewBox="0 0 10 13">
  <path id="twitter.svg" class="cls-1" d="M538.833,5077.28a1.6,1.6,0,0,0,1.175.47h3.313a1.637,1.637,0,0,1,1.185.48,1.543,1.543,0,0,1,.494,1.15,1.559,1.559,0,0,1-.494,1.15,1.669,1.669,0,0,1-1.184.47h-3.313a4.9,4.9,0,0,1-3.54-1.42,4.622,4.622,0,0,1-1.47-3.44v-6.51a1.541,1.541,0,0,1,.49-1.16,1.675,1.675,0,0,1,1.195-.47,1.616,1.616,0,0,1,1.175.48,1.548,1.548,0,0,1,.491,1.15v2.36h4.718a1.5,1.5,0,0,1,1.1.44,1.468,1.468,0,0,1,0,2.13,1.54,1.54,0,0,1-1.1.44H538.35v1.14A1.518,1.518,0,0,0,538.833,5077.28Z" transform="translate(-535 -5068)"/>
</svg>
